<svg width="264" height="405" viewBox="0 0 264 405" fill="none" xmlns="http://www.w3.org/2000/svg">
<path d="M222.273 1.73015C229.388 14.1419 238.059 22.587 247.577 31.82L247.581 31.8233C251.342 35.4288 255.172 39.1536 259.271 43.4397C263.743 48.132 267.136 53.681 269.318 59.9328L272.564 69.2901L272.87 70.1748L273.774 69.9271L283.34 67.3004L283.34 67.2994C288.854 65.8032 294.464 65.3172 299.964 65.8706C301.115 65.9864 302.295 66.1622 303.453 66.367L303.453 66.3679C309.339 67.4372 314.595 68.5628 319.648 69.6985L319.652 69.6988C327.603 71.4549 335.21 73.1252 343.095 73.9187C348.404 74.4529 353.509 74.5605 358.64 74.2197C354.9 88.0164 355.098 100.107 355.273 113.313L355.273 113.321C355.379 118.497 355.435 123.869 355.313 129.816L355.313 129.817C355.138 136.5 353.519 143.009 350.47 149.146L346.013 158.059L345.593 158.9L346.406 159.372L355.028 164.367L355.03 164.368C360.956 167.776 365.912 172.313 369.689 177.78L369.691 177.783C373.103 182.687 376.02 187.185 378.803 191.586L378.806 191.591C385.941 202.704 392.467 212.917 403.263 222.347C390.834 229.413 382.378 238.119 373.168 247.618L373.167 247.619C369.562 251.352 365.805 255.208 361.485 259.333L361.483 259.335C356.694 263.938 350.937 267.368 344.443 269.558L334.999 272.735L334.108 273.035L334.353 273.943L336.944 283.562L336.944 283.563C338.709 290.186 339 296.887 337.843 303.442C336.774 309.325 335.649 314.579 334.514 319.63L334.512 319.637C331.709 332.543 329.107 344.351 330.024 358.616C325.083 357.262 320.036 356.349 314.73 355.816C307.831 355.121 301.006 355.127 293.954 355.232L290.924 355.28C286.385 355.321 281.703 355.392 276.596 355.325L274.386 355.287C273.188 355.257 272.001 355.224 270.86 355.109C265.447 354.565 260.131 353.007 255.082 350.477L255.081 350.477L246.167 346.021L245.326 345.601L244.854 346.414L239.859 355.033C236.528 360.773 232.195 365.578 226.952 369.334L226.442 369.694C222.765 372.23 219.315 374.506 215.972 376.674L212.66 378.812C201.529 385.935 191.324 392.452 181.875 403.221C174.813 390.818 166.115 382.371 156.627 373.173L156.628 373.174C152.891 369.534 149.035 365.808 144.909 361.49L144.908 361.488L144.474 361.031C140.032 356.269 136.697 350.605 134.562 344.172L134.561 344.17L131.433 334.824L131.138 333.943L130.239 334.172L120.693 336.59L120.691 336.591C115.43 337.936 110.092 338.335 104.88 337.81C103.71 337.692 102.535 337.544 101.379 337.313L101.37 337.311L101.361 337.31C95.5345 336.247 90.2779 335.121 85.1944 333.982L85.1887 333.981L82.2205 333.338C75.3276 331.857 68.6401 330.514 61.7423 329.82C56.4285 329.286 51.3212 329.179 46.1683 329.495C49.9092 315.722 49.7429 303.607 49.5646 290.426L49.5652 290.42L49.4987 286.476C49.4451 282.489 49.4366 278.35 49.5279 273.887C49.6621 267.322 51.2395 260.929 54.2217 254.873L54.2229 254.871L58.5522 246.034L58.9609 245.201L58.1601 244.732L49.6572 239.749L49.6563 239.749C44.0279 236.458 39.3048 232.163 35.6248 227.01L35.2718 226.51C31.8884 221.607 28.9699 217.108 26.1562 212.701L26.1555 212.699L23.4136 208.443C17.2741 198.972 11.1204 190.154 1.73419 181.971C14.1438 174.859 22.5877 166.192 31.7918 156.675C34.9721 153.411 38.2464 150.072 41.8914 146.52L43.4769 144.985C48.2042 140.432 53.8407 137.021 60.2045 134.88L60.2095 134.879L69.5347 131.689L70.4129 131.389L70.1784 130.491L67.6963 120.97L67.6964 120.969C65.9829 114.409 65.7078 107.859 66.884 101.399C67.9473 95.5733 69.0726 90.3172 70.2145 85.2042L70.2151 85.1984C73.0186 72.2888 75.5918 60.4782 74.6729 46.2125C79.6586 47.5722 84.6848 48.4851 89.9971 49.0196C97.8502 49.8098 105.635 49.6889 113.773 49.5521C118.998 49.5079 124.367 49.3925 130.311 49.5437C131.519 49.5767 132.713 49.6391 133.865 49.755C139.163 50.2882 144.37 51.7769 149.34 54.2105L149.342 54.2117L158.182 58.511L159.013 58.9155L159.482 58.1186L164.462 49.6469L164.464 49.6432C167.862 43.8075 172.326 38.9906 177.709 35.2308C182.61 31.8496 187.105 28.9638 191.487 26.1446L191.486 26.1435C202.618 19.0192 212.824 12.502 222.273 1.73015Z" stroke="#9A7474" stroke-opacity="0.2" stroke-width="2"/>
</svg>
